nColumns=19
nRows=89
DataType=double
version=3
OpenSimVersion=4.1
endheader
time	ground_force_1_vx	ground_force_1_vy	ground_force_1_vz	ground_force_1_px	ground_force_1_py	ground_force_1_pz	ground_force_1_mx	ground_force_1_my	ground_force_1_mz	ground_force_2_vx	ground_force_2_vy	ground_force_2_vz	ground_force_2_px	ground_force_2_py	ground_force_2_pz	ground_force_2_mx	ground_force_2_my	ground_force_2_mz
0.166667	-11.257	29.7164	-2.66545	1.27721	0	-0.222759	0	-3.61594	0	0	0	0	-0.00107979	0	0.000407271	0	0	0
0.175	-28.5653	72.7098	-6.12333	1.28754	0	-0.24083	0	-3.3123	0	0	0	0	-0.00107979	0	0.000407271	0	0	0
0.183333	-54.6227	142.043	-10.828	1.29092	0	-0.246484	0	-2.6991	0	0	0	0	-0.00107979	0	0.000407271	0	0	0
0.191667	-77.182	224.131	-16.9402	1.28848	0	-0.249776	0	-1.82213	0	0	0	0	-0.00107979	0	0.00040727	0	0	0
0.2	-83.3926	309.535	-24.2472	1.27435	0	-0.253361	0	-0.82528	0	0	0	0	-0.00107979	0	0.00040727	0	0	0
0.208333	-79.8119	406.528	-31.5003	1.24926	0	-0.257333	-0	0.05951	-0	0	0	0	-0.00107979	0	0.00040727	0	0	0
0.216667	-83.7	524.044	-36.5009	1.22453	0	-0.26042	-0	0.56375	-0	0	0	0	-0.00107979	0	0.00040727	0	0	0
0.225	-99.295	661.593	-37.2801	1.20502	0	-0.262586	-0	0.467316	-0	0	0	0	-0.00107979	0	0.00040727	0	0	0
0.233333	-115.787	815.082	-33.0785	1.18581	0	-0.264945	0	-0.310654	0	0	0	0	-0.00107979	0	0.00040727	0	0	0
0.241667	-120.295	980.046	-24.0793	1.16316	0	-0.267956	0	-1.65101	0	0	0	0	-0.00107979	0	0.000407269	0	0	0
0.25	-111.795	1146.34	-11.2929	1.13952	0	-0.270895	0	-3.23362	0	0	0	0	-0.00107979	0	0.000407269	0	0	0
0.258333	-100.781	1295.7	2.21944	1.11854	0	-0.272906	0	-4.60933	0	0	0	0	-0.00107979	0	0.000407268	0	0	0
0.266667	-96.079	1410.94	11.0653	1.10121	0	-0.273886	0	-5.33318	0	0	0	0	-0.00107979	0	0.000407268	0	0	0
0.275	-96.1108	1487.42	10.7598	1.08659	0	-0.274272	0	-5.11491	0	0	0	0	-0.00107979	0	0.000407268	0	0	0
0.283333	-94.3876	1532.15	1.87077	1.07328	0	-0.274318	0	-3.92085	0	0	0	0	-0.0010798	0	0.000407267	0	0	0
0.291667	-87.5595	1554.48	-10.3591	1.06039	0	-0.273872	0	-1.97787	0	0	0	0	-0.0010798	0	0.000407267	0	0	0
0.3	-75.9347	1560.08	-21.0755	1.04763	0	-0.272867	-0	0.314887	-0	0	0	0	-0.0010798	0	0.000407266	0	0	0
0.308333	-59.7477	1549.24	-29.3983	1.03488	0	-0.271713	-0	2.51179	-0	0	0	0	-0.0010798	0	0.000407266	0	0	0
0.316667	-39.7476	1518.97	-36.525	1.02231	0	-0.270976	-0	4.22807	-0	0	0	0	-0.0010798	0	0.000407265	0	0	0
0.325	-17.9421	1468.63	-41.9631	1.01023	0	-0.270755	-0	5.20801	-0	0	0	0	-0.0010798	0	0.000407264	0	0	0
0.333333	4.24621	1402.36	-43.4405	0.998533	0	-0.270715	-0	5.35954	-0	0	0	0	-0.0010798	0	0.000407264	0	0	0
0.341667	27.6547	1324.99	-40.0412	0.986472	0	-0.270713	-0	4.75778	-0	0	0	0	-0.0010798	0	0.000407263	0	0	0
0.35	52.1435	1236.7	-33.5669	0.973638	0	-0.271075	-0	3.61207	-0	0	0	0	-0.0010798	0	0.000407262	0	0	0
0.358333	74.2208	1135.25	-26.3261	0.960635	0	-0.272112	-0	2.20213	-0	0	0	0	-0.00107981	0	0.000407261	0	0	0
0.366667	90.2673	1022.9	-18.9284	0.948265	0	-0.273637	-0	0.807407	-0	0	0	0	-0.00107981	0	0.000407261	0	0	0
0.375	100.122	906.058	-11.0524	0.936356	0	-0.2752	0	-0.345639	0	0	0	0	-0.00107981	0	0.00040726	0	0	0
0.383333	105.458	789.133	-3.33916	0.924003	0	-0.276594	0	-1.11203	0	0	0	0	-0.00107981	0	0.000407259	0	0	0
0.391667	106.133	673.656	2.63249	0.911141	0	-0.277981	0	-1.43905	0	0	0	0	-0.00107981	0	0.000407258	0	0	0
0.4	101.206	561.758	5.98391	0.898648	0	-0.279531	0	-1.36331	0	0	0	0	-0.00107981	0	0.000407257	0	0	0
0.408333	91.8508	457.354	7.32285	0.887169	0	-0.281079	0	-0.991823	0	0	0	0	-0.00107982	0	0.000407256	0	0	0
0.416667	80.0471	364.537	7.79262	0.876559	0	-0.282073	0	-0.469036	0	0	0	0	-0.00107982	0	0.000407255	0	0	0
0.425	66.7844	285.137	7.81971	0.867177	0	-0.281992	-0	0.059792	-0	0	0	0	-0.00107982	0	0.000407254	0	0	0
0.433333	53.0724	218.036	7.09623	0.860472	0	-0.280851	-0	0.47626	-0	0	0	0	-0.00107982	0	0.000407253	0	0	0
0.441667	40.886	161.656	5.54726	0.857121	0	-0.279063	-0	0.703214	-0	0	0	0	-0.00107982	0	0.000407252	0	0	0
0.45	31.7167	115.685	3.83844	0.856169	0	-0.276247	-0	0.709888	-0	0	0	0	-0.00107983	0	0.00040725	0	0	0
0.458333	25.1869	80.0105	2.78491	0.855989	0	-0.270348	-0	0.512188	-0	0	0	0	-0.00107983	0	0.000407249	0	0	0
0.466667	19.785	53.5768	2.52765	0.856518	0	-0.258775	-0	0.167454	-0	0	0	0	-0.00107983	0	0.000407248	0	0	0
0.475	14.6315	34.4405	2.54005	0.862531	0	-0.24157	0	-0.238657	0	0	0	0	-0.00107983	0	0.000407247	0	0	0
0.483333	0	0	0	-0.00107984	0	0.000407251	0	0	0	0	0	0	-0.00107983	0	0.000407246	0	0	0
0.491667	0	0	0	-0.00107984	0	0.00040725	0	0	0	0	0	0	-0.00107984	0	0.000407244	0	0	0
0.5	0	0	0	-0.00107984	0	0.000407249	0	0	0	0	0	0	-0.00107984	0	0.000407243	0	0	0
0.508333	0	0	0	-0.00107985	0	0.000407248	0	0	0	0	0	0	-0.00107984	0	0.000407242	0	0	0
0.516667	0	0	0	-0.00107985	0	0.000407247	0	0	0	0	0	0	-0.00107984	0	0.00040724	0	0	0
0.525	0	0	0	-0.00107985	0	0.000407246	0	0	0	0	0	0	-0.00107985	0	0.000407239	0	0	0
0.533333	0	0	0	-0.00107986	0	0.000407244	0	0	0	0	0	0	-0.00107985	0	0.000407237	0	0	0
0.541667	0	0	0	-0.00107986	0	0.000407243	0	0	0	0	0	0	-0.00107985	0	0.000407236	0	0	0
0.55	0	0	0	-0.00107986	0	0.000407242	0	0	0	-9.7831	27.811	-3.87296	1.20879	0	-0.341257	-0	1.61427	-0
0.558333	0	0	0	-0.00107986	0	0.000407241	0	0	0	-23.7565	71.3527	-3.79918	1.22387	0	-0.357252	-0	1.83825	-0
0.566667	0	0	0	-0.00107987	0	0.00040724	0	0	0	-44.04	144.88	-0.94714	1.22862	0	-0.360117	-0	1.8308	-0
0.575	0	0	0	-0.00107987	0	0.000407238	0	0	0	-60.8107	239.408	5.02298	1.2231	0	-0.359031	-0	1.64735	-0
0.583333	0	0	0	-0.00107987	0	0.000407237	0	0	0	-63.9677	348.415	12.0371	1.20516	0	-0.358329	-0	1.4211	-0
0.591667	0	0	0	-0.00107988	0	0.000407236	0	0	0	-59.8128	477.17	17.6183	1.1799	0	-0.359086	-0	1.32811	-0
0.6	0	0	0	-0.00107988	0	0.000407234	0	0	0	-64.059	629.528	21.6798	1.15798	0	-0.360023	-0	1.5324	-0
0.608333	0	0	0	-0.00107988	0	0.000407233	0	0	0	-78.4011	801.49	25.409	1.14133	0	-0.359538	-0	2.13101	-0
0.616667	0	0	0	-0.00107989	0	0.000407232	0	0	0	-90.1983	981.604	27.5658	1.12491	0	-0.357791	-0	3.1075	-0
0.625	0	0	0	-0.00107989	0	0.00040723	0	0	0	-88.7299	1153.1	24.615	1.10622	0	-0.355981	-0	4.3003	-0
0.633333	0	0	0	-0.0010799	0	0.000407229	0	0	0	-75.9621	1300.79	15.9246	1.08708	0	-0.354941	-0	5.4109	-0
0.641667	0	0	0	-0.0010799	0	0.000407227	0	0	0	-64.0087	1414.76	7.07459	1.07007	0	-0.354629	-0	6.08274	-0
0.65	0	0	0	-0.0010799	0	0.000407226	0	0	0	-60.6536	1493.44	5.63119	1.0557	0	-0.35446	-0	6.04113	-0
0.658333	0	0	0	-0.00107991	0	0.000407224	0	0	0	-62.7409	1543.24	13.5492	1.04267	0	-0.354119	-0	5.22445	-0
0.666667	0	0	0	-0.00107991	0	0.000407223	0	0	0	-61.0728	1570.98	25.353	1.02953	0	-0.353878	-0	3.82365	-0
0.675	0	0	0	-0.00107991	0	0.000407221	0	0	0	-50.444	1578.91	34.107	1.01586	0	-0.35408	-0	2.20655	-0
0.683333	0	0	0	-0.00107992	0	0.00040722	0	0	0	-33.2586	1567.23	37.6246	1.0021	0	-0.354509	-0	0.780457	-0
0.691667	0	0	0	-0.00107992	0	0.000407218	0	0	0	-13.729	1537.71	38.0225	0.988635	0	-0.354459	0	-0.129333	0
0.7	0	0	0	-0.00107993	0	0.000407217	0	0	0	6.79552	1491.9	36.8263	0.975484	0	-0.3536	0	-0.346656	0
0.708333	0	0	0	-0.00107993	0	0.000407215	0	0	0	29.1917	1428.81	32.802	0.962332	0	-0.352355	-0	0.136166	-0
0.716667	0	0	0	-0.00107993	0	0.000407214	0	0	0	52.6201	1347.45	24.6275	0.949033	0	-0.351178	-0	1.17068	-0
0.725	0	0	0	-0.00107994	0	0.000407212	0	0	0	73.5379	1250.13	13.6902	0.935948	0	-0.349919	-0	2.4942	-0
0.733333	0	0	0	-0.00107994	0	0.00040721	0	0	0	89.9783	1141.6	3.06102	0.923304	0	-0.348054	-0	3.79923	-0
0.741667	0	0	0	-0.00107995	0	0.000407209	0	0	0	102.057	1026.08	-5.48814	0.91089	0	-0.345451	-0	4.8106	-0
0.75	0	0	0	-0.00107995	0	0.000407207	0	0	0	110.307	906.373	-12.3258	0.898436	0	-0.342637	-0	5.34135	-0
0.758333	0	0	0	-0.00107996	0	0.000407205	0	0	0	114.407	784.915	-18.1037	0.885913	0	-0.340231	-0	5.31371	-0
0.766667	0	0	0	-0.00107996	0	0.000407203	0	0	0	114.033	665.856	-22.1832	0.873437	0	-0.338305	-0	4.7532	-0
0.775	0	0	0	-0.00107996	0	0.000407202	0	0	0	109.735	554.912	-23.3941	0.860986	0	-0.336231	-0	3.77025	-0
0.783333	0	0	0	-0.00107997	0	0.0004072	0	0	0	101.55	455.162	-21.8487	0.848914	0	-0.333521	-0	2.53374	-0
0.791667	0	0	0	-0.00107997	0	0.000407198	0	0	0	89.4049	366.405	-19.2487	0.838358	0	-0.330721	-0	1.235	-0
0.8	0	0	0	-0.00107998	0	0.000407196	0	0	0	74.6959	288.29	-17.2039	0.82996	0	-0.328908	-0	0.04731	-0
0.808333	0	0	0	-0.00107998	0	0.000407195	0	0	0	59.8709	221.429	-15.7244	0.822766	0	-0.328025	0	-0.904226	0
0.816667	0	0	0	-0.00107999	0	0.000407193	0	0	0	46.9243	165.831	-13.7595	0.815636	0	-0.32637	0	-1.5514	0
0.825	0	0	0	-0.00107999	0	0.000407191	0	0	0	36.5729	120.259	-10.8961	0.809561	0	-0.322252	0	-1.87483	0
0.833333	0	0	0	-0.00108	0	0.000407189	0	0	0	28.6471	83.5065	-7.95584	0.806729	0	-0.315853	0	-1.89372	0
0.841667	0	0	0	-0.00108	0	0.000407187	0	0	0	22.4863	55.2889	-5.93554	0.807404	0	-0.308527	0	-1.66191	0
0.85	0	0	0	-0.00108001	0	0.000407185	0	0	0	17.4806	35.3441	-4.88763	0.808574	0	-0.29968	0	-1.26591	0
0.858333	0	0	0	-0.00108001	0	0.000407183	0	0	0	0	0	0	-0.00107999	0	0.000407159	0	0	0
0.866667	0	0	0	-0.00108002	0	0.000407181	0	0	0	0	0	0	-0.00108	0	0.000407157	0	0	0
0.875	0	0	0	-0.00108002	0	0.000407179	0	0	0	0	0	0	-0.00108	0	0.000407155	0	0	0
0.883333	0	0	0	-0.00108003	0	0.000407178	0	0	0	0	0	0	-0.00108001	0	0.000407152	0	0	0
0.891667	0	0	0	-0.00108003	0	0.000407176	0	0	0	0	0	0	-0.00108001	0	0.00040715	0	0	0
0.9	0	0	0	-0.00108004	0	0.000407174	0	0	0	0	0	0	-0.00108002	0	0.000407147	0	0	0
